<?xml version="1.0" encoding="UTF-8"?>
<!DOCTYPE svg PUBLIC "-//W3C//DTD SVG 1.1//EN" "http://www.w3.org/Graphics/SVG/1.1/DTD/svg11.dtd">
<!-- Creator: CorelDRAW X6 -->
<svg xmlns="http://www.w3.org/2000/svg" xml:space="preserve" width="90px" height="87px" version="1.1" style="shape-rendering:geometricPrecision; text-rendering:geometricPrecision; image-rendering:optimizeQuality; fill-rule:evenodd; clip-rule:evenodd"
viewBox="0 0 36 35"
 xmlns:xlink="http://www.w3.org/1999/xlink">
 <defs>
  <style type="text/css">
   <![CDATA[
    .fil3 {fill:#EBECEC}
    .fil2 {fill:#004BC4}
    .fil0 {fill:#49A551}
    .fil1 {fill:#0E9545}
   ]]>
  </style>
 </defs>
 <g id="Layer_x0020_1">
  <metadata id="CorelCorpID_0Corel-Layer"/>
  <g id="_288986368">
   <path class="fil0" d="M14 23c1,0 1,0 1,0l6 0c0,0 0,0 0,0 0,0 -1,-1 -1,-1 -1,0 -1,0 -2,0 -1,0 -2,0 -3,1 0,0 0,0 -1,0z"/>
   <path class="fil0" d="M14 18c0,0 1,0 1,0l7 0c0,0 0,0 0,0 0,0 0,0 -1,0 -2,-1 -4,-1 -6,0 -1,0 -1,0 -1,0z"/>
   <path class="fil0" d="M22 18c0,0 0,0 0,0l-7 0c0,0 -1,0 -1,0 -1,0 -2,0 -2,0l12 0 0 0c0,0 -1,0 -2,0z"/>
   <path class="fil0" d="M21 23c0,0 0,0 0,0l-6 0c0,0 0,0 -1,0 0,0 0,0 -1,0 0,0 0,0 0,0l10 0c0,0 -1,0 -2,0z"/>
   <path class="fil1" d="M21 16c0,0 1,0 1,0 1,0 1,0 1,0 0,0 0,0 0,0 0,0 1,0 1,0 0,0 0,0 0,0 1,0 1,0 1,-1 2,0 3,0 4,-1 0,0 0,0 0,0 1,0 1,0 1,0 0,-1 1,-1 1,-1l1 -1c0,-1 0,-1 1,-1 0,-1 0,-1 0,-1 0,0 1,-1 1,-2 0,0 0,0 0,0 0,0 -1,1 -1,1l-4 2c0,0 0,0 0,0l-1 1c0,0 0,0 0,0 -1,0 -1,0 -1,0l-6 4zm11 -10l0 1c-1,0 -1,0 -1,0 0,0 0,0 0,0 -1,1 -2,2 -3,2l-1 1c0,0 0,0 0,0 0,0 0,0 0,0l-2 1c0,0 0,0 0,0l-2 1c-1,1 -2,2 -2,2l-1 1c0,0 0,0 0,0 0,0 0,1 1,1l6 -4c0,0 0,0 1,0 0,0 0,0 0,0l1 -1c0,0 0,0 0,0l4 -2c0,0 1,-1 1,-1 0,0 0,0 0,0 0,0 0,-1 0,-1 0,0 0,-1 0,-1 0,0 0,-1 0,-1l0 0 -1 1c0,0 0,0 0,0l-1 0zm-13 8c0,-1 0,-1 1,-1l1 -1c0,0 0,0 0,0l1 0c0,0 1,-1 2,-2 0,0 0,0 0,0 1,0 3,-1 3,-1 1,-1 3,-2 4,-3 1,0 1,0 2,-1 0,0 0,0 0,0 0,0 -1,1 -1,1 0,0 0,0 0,0 0,0 0,0 0,0l1 0c0,0 0,0 0,0l1 -1 0 0c1,0 0,0 0,0 1,-1 1,-1 1,-1 0,-1 -1,-1 -1,-2 0,0 0,0 0,-1 0,0 0,-1 0,-1l-1 0c0,1 -2,1 -3,1 -1,1 -2,1 -3,1 -1,1 -3,2 -4,3 0,0 0,0 0,0 0,0 0,0 0,0 0,0 0,0 0,0l0 0c-1,1 -1,1 -1,1 0,0 -1,1 -1,2 -1,2 -2,3 -2,5 0,0 0,0 0,1zm0 0c0,0 0,0 0,0l0 2c0,-1 0,-1 0,-1 0,-1 1,-1 1,-2 0,0 0,0 0,0 0,0 0,0 0,0l1 0c0,0 0,0 0,-1 0,0 0,0 0,0l-1 1c-1,0 -1,0 -1,1z"/>
   <path class="fil1" d="M5 33c0,0 0,1 0,2l26 0c0,-1 0,-1 0,-1 0,-1 0,-1 0,-1 0,0 0,0 0,0l1 0 -26 0 -1 0c0,0 0,0 0,0zm0 0c0,0 0,0 0,0l1 0 26 0 -1 0c0,0 0,0 0,0 0,0 0,-1 0,-1 0,0 0,0 0,0 0,-1 0,-1 0,-1l-26 0c0,0 0,0 0,1 0,0 0,0 0,0 0,0 0,1 0,1zm0 -2l26 0c0,0 -1,-1 -1,-1 0,-1 0,-1 -1,-2 0,0 0,-1 0,-1 -1,-1 -1,-1 -2,-2 -1,-1 -2,-1 -3,-2 0,0 0,0 0,0 0,0 -1,-1 -1,-1 -3,-1 -5,-1 -8,0 0,0 -1,0 -2,1 -1,0 -2,0 -3,1 -2,1 -3,3 -3,4 -1,0 -1,0 -1,0 0,0 0,1 0,1 0,0 0,0 0,1 0,0 -1,1 -1,1z"/>
   <path class="fil1" d="M8 11c0,0 0,0 0,0l5 1c0,0 0,0 1,0 0,0 1,1 2,1l0 0c0,-1 0,-1 0,-2 0,-1 -1,-2 -2,-3 0,0 -1,0 -1,0l0 -1c0,0 1,1 1,1 2,1 3,3 2,4 0,1 0,1 0,1 0,0 1,0 2,0l0 0c0,0 0,0 0,0 0,0 0,0 0,0 0,-1 0,-1 0,-1 0,-1 0,-2 -1,-3 -1,-2 -3,-3 -5,-3 -2,-1 -2,-1 -4,-1 0,-1 -1,-1 -2,-1 0,0 0,0 0,0 1,0 1,2 1,3 0,1 1,2 1,3l0 1c0,0 0,0 0,0zm4 5c0,0 0,0 -1,0 0,0 -1,0 -1,-1 0,0 -1,0 -1,0 0,0 1,0 1,0 0,1 1,1 1,1 1,0 1,0 1,0zm-3 -1c0,0 1,0 1,0 0,1 1,1 1,1 1,0 1,0 1,0 1,0 2,0 2,0l1 0c0,0 0,0 0,0 0,0 0,0 0,0l0 0 0 0c0,0 0,0 0,0 0,0 0,0 0,0l-6 -1c0,0 0,0 0,0zm-1 -4c0,0 0,1 0,1 0,0 0,0 0,0l0 0c0,0 1,1 1,1 0,0 1,0 1,0l5 1c0,0 0,0 0,0 0,0 0,0 0,0 0,0 0,0 0,0 0,-1 0,-1 0,-1 0,0 1,0 1,0l0 0c-1,0 -2,-1 -2,-1 -1,0 -1,0 -1,0l-5 -1c0,0 0,0 0,0zm0 1c0,1 0,1 1,1 0,1 0,2 0,2 0,0 0,0 0,0l6 1c0,0 0,0 0,0 0,0 0,0 0,0l0 0 0 0c0,0 1,-1 1,-1 0,0 1,0 1,-1 0,0 0,0 1,-1 0,0 0,0 0,0l0 0c-1,0 -2,0 -2,0l0 0c0,0 0,0 0,0 0,1 0,1 -1,1l0 0c0,0 -1,1 -1,1l1 -1c0,0 0,0 0,0 0,0 0,0 0,0 0,0 0,0 0,0 0,0 0,0 0,0l-5 -1c0,0 -1,0 -1,0 0,0 -1,-1 -1,-1l0 0zm6 3l0 0zm-1 -8l0 0 0 0z"/>
   <line class="fil0" x1="33" y1="5" x2="33" y2= "5" />
   <path class="fil2" d="M0 34l0 1 3 0c0,-2 0,-4 1,-6 0,-1 1,-1 1,-2 0,-1 1,-1 1,-2 1,0 1,0 1,0l1 -1c0,-1 1,-1 1,-2 1,0 2,-1 3,-1 3,-1 6,-2 9,-1 1,0 1,0 2,0 1,1 1,1 2,1 0,0 0,1 0,1 1,0 2,0 2,1 0,0 0,0 1,0l0 1c1,0 1,0 1,0 0,1 0,1 1,1 0,1 1,2 1,3 1,1 2,3 2,4 0,0 0,1 0,1 0,0 0,1 0,2l3 0c0,-3 -1,-5 -2,-7 0,-2 -1,-3 -2,-5 0,0 0,0 0,0l-1 0c0,0 0,0 0,-1 0,0 0,0 0,0l-1 -1c0,0 0,0 0,0 -1,-1 -3,-2 -4,-2 -1,-1 -2,-1 -3,-1 0,0 0,-1 0,-1 -3,0 -5,0 -7,0 -2,0 -3,0 -4,1l-1 0c-1,1 -1,1 -2,1l0 0c0,0 -1,1 -1,1 0,0 0,0 0,0l-1 1c0,0 0,0 0,0 0,0 0,0 0,0l-1 1c-1,0 -1,0 -1,0 0,0 0,0 0,0l0 1c0,0 0,0 -1,0 0,0 0,0 0,1 0,0 -1,0 -1,0l-1 2c0,1 0,1 0,1l-1 1c0,0 0,1 0,1 0,1 -1,2 -1,3 0,1 0,2 0,2z"/>
   <path class="fil3" d="M14 18c0,0 1,0 1,0 2,-1 4,-1 6,0 0,0 0,0 1,0 0,0 1,0 1,0l0 0c-4,0 -6,0 -10,0 0,0 1,0 1,0z"/>
   <path class="fil3" d="M15 23c0,0 0,0 0,0 2,-1 4,-1 6,0 0,0 0,0 0,0 1,0 2,0 2,0l0 0c-4,0 -5,0 -10,0 1,0 1,0 2,0z"/>
  </g>
 </g>
</svg>
